<svg xmlns="http://www.w3.org/2000/svg" xmlns:xlink="http://www.w3.org/1999/xlink" viewBox="0,0,256,256" width="24px" height="24px"><g fill="#ea6b3d" fill-rule="nonzero" stroke="none" stroke-width="1" stroke-linecap="butt" stroke-linejoin="miter" stroke-miterlimit="10" stroke-dasharray="" stroke-dashoffset="0" font-family="none" font-weight="none" font-size="none" text-anchor="none" style="mix-blend-mode: normal"><g transform="scale(10.66667,10.66667)"><path d="M12,2c-5.523,0 -10,4.477 -10,10c0,5.523 4.477,10 10,10c5.523,0 10,-4.477 10,-10c0,-5.523 -4.477,-10 -10,-10zM16,13h-3v3c0,0.552 -0.448,1 -1,1v0c-0.552,0 -1,-0.448 -1,-1v-3h-3c-0.552,0 -1,-0.448 -1,-1v0c0,-0.552 0.448,-1 1,-1h3v-3c0,-0.552 0.448,-1 1,-1v0c0.552,0 1,0.448 1,1v3h3c0.552,0 1,0.448 1,1v0c0,0.552 -0.448,1 -1,1z"></path></g></g></svg>