<svg xmlns="http://www.w3.org/2000/svg" xmlns:xlink="http://www.w3.org/1999/xlink" viewBox="0,0,256,256" width="64px" height="64px"><g fill="#262e55" fill-rule="nonzero" stroke="none" stroke-width="1" stroke-linecap="butt" stroke-linejoin="miter" stroke-miterlimit="10" stroke-dasharray="" stroke-dashoffset="0" font-family="none" font-weight="none" font-size="none" text-anchor="none" style="mix-blend-mode: normal"><g transform="scale(3.55556,3.55556)"><path d="M58.75,40.3c1.2,1.14 1.58,2.87 0.95,4.41c-1.9,4.66 -8.7,15.29 -22.96,15.29c-13.962,0 -23.48,-10.34 -24.62,-21.98c-1.15,-11.72 6.29,-22.59 17.7,-25.86c0.656,-0.187 1.324,-0.205 1.955,-0.072c0.918,0.194 1.756,0.71 2.355,1.492c1,1.32 1.09,3.09 0.23,4.5c-1.75,2.86 -2.48,6.15 -2.1,9.52c0.556,5.066 3.715,9.408 8.126,11.703c1.701,0.885 3.588,1.466 5.584,1.667c2.89,0.29 5.76,-0.19 8.32,-1.39c0.599,-0.284 1.238,-0.409 1.866,-0.385c0.946,0.037 1.867,0.414 2.594,1.105z"></path></g></g></svg>