<svg xmlns="http://www.w3.org/2000/svg" xmlns:xlink="http://www.w3.org/1999/xlink" viewBox="0,0,256,256" width="78px" height="78px"><defs><linearGradient x1="1320" y1="2000" x2="2680" y2="2000" gradientUnits="userSpaceOnUse" id="color-1"><stop offset="0" stop-color="#ef7a66"></stop><stop offset="1" stop-color="#ed512f"></stop></linearGradient><linearGradient x1="1864" y1="843.975" x2="2136" y2="843.975" gradientUnits="userSpaceOnUse" id="color-2"><stop offset="0" stop-color="#ef7a66"></stop><stop offset="1" stop-color="#ed512f"></stop></linearGradient><linearGradient x1="2633.383" y1="1182.566" x2="3001.539" y2="1182.566" gradientUnits="userSpaceOnUse" id="color-3"><stop offset="0" stop-color="#ef7a66"></stop><stop offset="1" stop-color="#ed512f"></stop></linearGradient><linearGradient x1="2952" y1="2000" x2="3360" y2="2000" gradientUnits="userSpaceOnUse" id="color-4"><stop offset="0" stop-color="#ef7a66"></stop><stop offset="1" stop-color="#ed512f"></stop></linearGradient><linearGradient x1="2633.383" y1="2817.432" x2="3001.539" y2="2817.432" gradientUnits="userSpaceOnUse" id="color-5"><stop offset="0" stop-color="#ef7a66"></stop><stop offset="1" stop-color="#ed512f"></stop></linearGradient><linearGradient x1="1864" y1="3156.025" x2="2136" y2="3156.025" gradientUnits="userSpaceOnUse" id="color-6"><stop offset="0" stop-color="#ef7a66"></stop><stop offset="1" stop-color="#ed512f"></stop></linearGradient><linearGradient x1="998.461" y1="2817.438" x2="1366.617" y2="2817.438" gradientUnits="userSpaceOnUse" id="color-7"><stop offset="0" stop-color="#ef7a66"></stop><stop offset="1" stop-color="#ed512f"></stop></linearGradient><linearGradient x1="640" y1="2000" x2="1048" y2="2000" gradientUnits="userSpaceOnUse" id="color-8"><stop offset="0" stop-color="#ef7a66"></stop><stop offset="1" stop-color="#ed512f"></stop></linearGradient><linearGradient x1="998.461" y1="1182.56" x2="1366.617" y2="1182.56" gradientUnits="userSpaceOnUse" id="color-9"><stop offset="0" stop-color="#ef7a66"></stop><stop offset="1" stop-color="#ed512f"></stop></linearGradient></defs><g fill="none" fill-rule="nonzero" stroke="none" stroke-width="1" stroke-linecap="butt" stroke-linejoin="miter" stroke-miterlimit="10" stroke-dasharray="" stroke-dashoffset="0" font-family="none" font-weight="none" font-size="none" text-anchor="none" style="mix-blend-mode: normal"><g transform="scale(0.064,0.064)"><circle cx="2000" cy="2000" r="680" fill="url(#color-1)"></circle><path d="M2000,1047.95c-75.172,0 -136,-60.895 -136,-136v-135.95c0,-75.105 60.828,-136 136,-136c75.172,0 136,60.895 136,136v135.95c0,75.106 -60.828,136 -136,136z" fill="url(#color-2)"></path><path d="M2769.383,1366.634c-34.797,0 -69.594,-13.281 -96.156,-39.844c-53.125,-53.108 -53.125,-139.221 0,-192.329l96.156,-96.14c53.125,-53.092 139.188,-53.108 192.312,0.017c53.125,53.108 53.125,139.221 0,192.329l-96.156,96.14c-26.562,26.546 -61.359,39.827 -96.156,39.827z" fill="url(#color-3)"></path><path d="M3224,2136h-136c-75.172,0 -136,-60.895 -136,-136c0,-75.105 60.828,-136 136,-136h136c75.172,0 136,60.895 136,136c0,75.105 -60.828,136 -136,136z" fill="url(#color-4)"></path><path d="M2865.539,3001.506c-34.797,0 -69.594,-13.265 -96.156,-39.827l-96.156,-96.14c-53.125,-53.108 -53.125,-139.221 0,-192.329c53.125,-53.125 139.188,-53.142 192.312,-0.017l96.156,96.14c53.125,53.108 53.125,139.221 0,192.329c-26.562,26.563 -61.359,39.844 -96.156,39.844z" fill="url(#color-5)"></path><g fill="url(#color-6)"><path d="M2000,3360c-75.172,0 -136,-60.895 -136,-136v-135.95c0,-75.105 60.828,-136 136,-136c75.172,0 136,60.895 136,136v135.95c0,75.105 -60.828,136 -136,136z"></path></g><g fill="url(#color-7)"><path d="M1134.461,3001.506c-34.797,0 -69.594,-13.281 -96.156,-39.844c-53.125,-53.108 -53.125,-139.221 0,-192.329l96.156,-96.14c53.125,-53.092 139.188,-53.108 192.312,0.017c53.125,53.108 53.125,139.221 0,192.329l-96.156,96.14c-26.562,26.546 -61.359,39.827 -96.156,39.827z"></path></g><g fill="url(#color-8)"><path d="M912,2136h-136c-75.172,0 -136,-60.895 -136,-136c0,-75.105 60.828,-136 136,-136h136c75.172,0 136,60.895 136,136c0,75.105 -60.828,136 -136,136z"></path></g><g fill="url(#color-9)"><path d="M1230.617,1366.634c-34.797,0 -69.594,-13.265 -96.156,-39.827l-96.156,-96.14c-53.125,-53.108 -53.125,-139.221 0,-192.329c53.125,-53.125 139.188,-53.142 192.312,-0.017l96.156,96.14c53.125,53.108 53.125,139.221 0,192.329c-26.562,26.563 -61.359,39.844 -96.156,39.844z"></path></g></g></g></svg>