<svg xmlns="http://www.w3.org/2000/svg" xmlns:xlink="http://www.w3.org/1999/xlink" viewBox="0,0,256,256" width="24px" height="24px"><g fill="#ea6b3d" fill-rule="nonzero" stroke="none" stroke-width="1" stroke-linecap="butt" stroke-linejoin="miter" stroke-miterlimit="10" stroke-dasharray="" stroke-dashoffset="0" font-family="none" font-weight="none" font-size="none" text-anchor="none" style="mix-blend-mode: normal"><g transform="scale(10.66667,10.66667)"><path d="M12,2c-5.523,0 -10,4.477 -10,10c0,5.523 4.477,10 10,10c5.523,0 10,-4.477 10,-10c0,-5.523 -4.477,-10 -10,-10zM12,4c4.418,0 8,3.582 8,8c0,1.59729 -0.4746,3.08111 -1.28125,4.33008l-0.76953,-0.5957c-1.552,-1.197 -4.41222,-1.73437 -5.94922,-1.73437c-1.537,0 -4.39822,0.53738 -5.94922,1.73438l-0.76953,0.59766c-0.80721,-1.24926 -1.28125,-2.73414 -1.28125,-4.33203c0,-4.418 3.582,-8 8,-8zM12,5.75c-1.792,0 -3.25,1.458 -3.25,3.25c0,1.792 1.458,3.25 3.25,3.25c1.792,0 3.25,-1.458 3.25,-3.25c0,-1.792 -1.458,-3.25 -3.25,-3.25zM12,7.75c0.689,0 1.25,0.561 1.25,1.25c0,0.689 -0.561,1.25 -1.25,1.25c-0.689,0 -1.25,-0.561 -1.25,-1.25c0,-0.689 0.561,-1.25 1.25,-1.25zM12,16c3.10071,0 4.76809,1.16848 5.54883,1.75391c-1.43884,1.38793 -3.39198,2.24609 -5.54883,2.24609c-2.15685,0 -4.10998,-0.85817 -5.54883,-2.24609c0.78073,-0.58543 2.44811,-1.75391 5.54883,-1.75391zM6.05469,17.33984c0.12097,0.13329 0.24258,0.26601 0.37109,0.39063c-0.12867,-0.12518 -0.25105,-0.25709 -0.37109,-0.39062zM17.91211,17.375c-0.10967,0.12054 -0.21917,0.24182 -0.33594,0.35547c0.11645,-0.11295 0.22528,-0.23549 0.33594,-0.35547z"></path></g></g></svg>