<svg xmlns="http://www.w3.org/2000/svg" xmlns:xlink="http://www.w3.org/1999/xlink" viewBox="0,0,256,256" width="24px" height="24px"><g fill="#ea6b3d" fill-rule="nonzero" stroke="none" stroke-width="1" stroke-linecap="butt" stroke-linejoin="miter" stroke-miterlimit="10" stroke-dasharray="" stroke-dashoffset="0" font-family="none" font-weight="none" font-size="none" text-anchor="none" style="mix-blend-mode: normal"><g transform="scale(10.66667,10.66667)"><path d="M14.16797,1l-6.58398,6.5957c-0.37215,0.37314 -0.58192,0.87812 -0.58398,1.4043h-6v12h6c0.36605,0 0.70494,-0.10581 1,-0.27734c0.29506,0.17153 0.63395,0.27734 1,0.27734h8.99219c0.799,0 1.52189,-0.47594 1.83789,-1.21094l3.00781,-7.00195c0.107,-0.249 0.16211,-0.51806 0.16211,-0.78906v-1.99805c0,-1.105 -0.895,-2 -2,-2h-6.35156l0.9375,-4.29687c0.146,-0.671 -0.06273,-1.36861 -0.55274,-1.84961zM13.32617,4.67383l-0.63086,2.90039l-0.52734,2.42578h2.48242h6.34961v1.99805l-3.00781,7.00195h-8.99219v-8v-1.99219zM3,11h4v8h-4z"></path></g></g></svg>