<svg xmlns="http://www.w3.org/2000/svg" xmlns:xlink="http://www.w3.org/1999/xlink" viewBox="0,0,256,256" width="24px" height="24px"><g fill="#ea6b3d" fill-rule="nonzero" stroke="none" stroke-width="1" stroke-linecap="butt" stroke-linejoin="miter" stroke-miterlimit="10" stroke-dasharray="" stroke-dashoffset="0" font-family="none" font-weight="none" font-size="none" text-anchor="none" style="mix-blend-mode: normal"><g transform="scale(10.66667,10.66667)"><path d="M14.16992,1.61328c-0.38237,0.00175 -0.76514,0.14941 -1.05664,0.44141l-5.5293,5.54102c-0.374,0.375 -0.58398,0.88211 -0.58398,1.41211v9.99219c0,1.105 0.895,2 2,2h8.99219c0.799,0 1.52189,-0.47594 1.83789,-1.21094l3.00781,-7.00195c0.107,-0.249 0.16211,-0.51806 0.16211,-0.78906v-1.99805c0,-1.105 -0.895,-2 -2,-2h-6.35156l0.99414,-4.56445c0.11,-0.504 -0.04706,-1.02962 -0.41406,-1.39062c-0.294,-0.289 -0.67622,-0.43339 -1.05859,-0.43164zM2,9c-0.552,0 -1,0.448 -1,1v10c0,0.552 0.448,1 1,1h2c0.552,0 1,-0.448 1,-1v-10c0,-0.552 -0.448,-1 -1,-1z"></path></g></g></svg>